# File created by Blade
# Date/Time:  Tue Jan 27 17:16:36 2015
#---------------------------------------------------------
:version 1.10
:name HOM
:units
  mass 1.0
  length 1.000000
  angle deg
:documentation
     Acclaim Skeleton File
:root
   axis xyz
   order TX TY TZ RX RY RZ
   position 0.000000 0.000000 0.000000
   orientation 0 0 0
:bonedata
   begin
      id 1
      name Spine_dum
      direction 0.000000 1.000000 0.000000
      length 7.539951
      axis 0.0 0.0 0.0 xyz
   end
   begin
      id 2
      name LeftUpLeg_dum
      direction 1.000000 0.000000 0.000000
      length 3.345476
      axis 0.0 0.0 0.0 xyz
   end
   begin
      id 3
      name RightUpLeg_dum
      direction -1.000000 0.000000 0.000000
      length 3.345476
      axis 0.0 0.0 0.0 xyz
   end
   begin
      id 4
      name Spine
      direction 0.000000 1.000000 0.000000
      length 0.000000
      axis 0.0 0.0 0.0 xyz
      dof rx ry rz
   end
   begin
      id 5
      name Spine_dum1
      direction 0.000000 1.000000 0.000000
      length 15.093809
      axis 0.0 0.0 0.0 xyz
   end
   begin
      id 6
      name Spine_dum2
      direction 0.000000 1.000000 0.000000
      length 9.738928
      axis 0.0 0.0 0.0 xyz
   end
   begin
      id 7
      name Spine_dum3
      direction 0.000000 1.000000 0.000000
      length 9.738928
      axis 0.0 0.0 0.0 xyz
   end
   begin
      id 8
      name Head
      direction 0.000000 1.000000 0.000000
      length 4.527550
      axis 0.0 0.0 0.0 xyz
      dof rx ry rz
   end
   begin
      id 9
      name LeftShoulder
      direction 1.000000 0.000000 0.000000
      length 7.084015
      axis 0.0 0.0 -90.0 xyz
      dof rx ry rz
   end
   begin
      id 10
      name LeftArm
      direction 1.000000 0.000000 0.000000
      length 10.259319
      axis 0.0 0.0 -90.0 xyz
      dof rx ry rz
   end
   begin
      id 11
      name LeftForeArm
      direction 1.000000 0.000000 0.000000
      length 9.896984
      axis 0.0 0.0 -90.0 xyz
      dof ry rz rx
   end
   begin
      id 12
      name LeftHand
      direction 0.000000 0.000000 0.000000
      length 0.000000
      axis 0.0 0.0 -90.0 xyz
      dof rx ry rz
   end
   begin
      id 13
      name LeftHand_dum1
      direction 0.000000 0.000000 0.000000
      length 0.000000
      axis 0.0 0.0 -90.0 xyz
   end
   begin
      id 14
      name LeftHand_dum2
      direction 1.000000 0.000000 0.000000
      length 3.937000
      axis 0.0 0.0 -90.0 xyz
   end
   begin
      id 15
      name LeftHandThumb1
      direction 0.000000 0.000000 1.000000
      length 3.937000
      axis 0.0 0.0 -90.0 xyz
      dof rx rz ry
   end
   begin
      id 16
      name RightShoulder
      direction -1.000000 0.000000 0.000000
      length 7.084015
      axis 0.0 0.0 90.0 xyz
      dof rx ry rz
   end
   begin
      id 17
      name RightArm
      direction -1.000000 0.000000 0.000000
      length 10.259319
      axis 0.0 0.0 90.0 xyz
      dof rx ry rz
   end
   begin
      id 18
      name RightForeArm
      direction -1.000000 0.000000 0.000000
      length 9.896984
      axis 0.0 0.0 90.0 xyz
      dof ry rz rx
   end
   begin
      id 19
      name RightHand
      direction 0.000000 0.000000 0.000000
      length 0.000000
      axis 0.0 0.0 90.0 xyz
      dof rx ry rz
   end
   begin
      id 20
      name RightHand_dum1
      direction 0.000000 0.000000 0.000000
      length 0.000000
      axis 0.0 0.0 90.0 xyz
   end
   begin
      id 21
      name RightHand_dum2
      direction -1.000000 0.000000 0.000000
      length 3.937000
      axis 0.0 0.0 90.0 xyz
   end
   begin
      id 22
      name RightHandThumb1
      direction 0.000000 0.000000 1.000000
      length 3.937000
      axis 0.0 0.0 90.0 xyz
      dof rx rz ry
   end
   begin
      id 23
      name LeftUpLeg
      direction 0.000000 -1.000000 0.000000
      length 19.114733
      axis 0.0 0.0 0.0 xyz
      dof rx ry rz
   end
   begin
      id 24
      name LeftLeg
      direction 0.000000 -1.000000 0.000000
      length 16.045604
      axis 0.0 0.0 0.0 xyz
      dof rx ry rz
   end
   begin
      id 25
      name LeftFoot
      direction 0.000000 -0.258819 0.965926
      length 5.543155
      axis 15.0 0.0 0.0 xyz
      dof rx ry rz
   end
   begin
      id 26
      name LeftToeBase
      direction 0.000000 0.000000 1.000000
      length 2.952750
      axis 0.0 0.0 0.0 xyz
      dof rx ry rz
   end
   begin
      id 27
      name RightUpLeg
      direction 0.000000 -1.000000 0.000000
      length 19.114733
      axis 0.0 0.0 0.0 xyz
      dof rx ry rz
   end
   begin
      id 28
      name RightLeg
      direction 0.000000 -1.000000 0.000000
      length 16.045604
      axis 0.0 0.0 0.0 xyz
      dof rx ry rz
   end
   begin
      id 29
      name RightFoot
      direction 0.000000 -0.258819 0.965926
      length 5.543155
      axis 15.0 0.0 0.0 xyz
      dof rx ry rz
   end
   begin
      id 30
      name RightToeBase
      direction 0.000000 0.000000 1.000000
      length 2.952750
      axis 0.0 0.0 0.0 xyz
      dof rx ry rz
   end
:hierarchy
   begin
      root Spine_dum LeftUpLeg_dum RightUpLeg_dum
      Spine_dum Spine
      LeftUpLeg_dum LeftUpLeg
      RightUpLeg_dum RightUpLeg
      Spine Spine_dum1 Spine_dum2 Spine_dum3
      Spine_dum1 Head
      Spine_dum2 LeftShoulder
      Spine_dum3 RightShoulder
      LeftShoulder LeftArm
      LeftArm LeftForeArm
      LeftForeArm LeftHand
      LeftHand LeftHand_dum1 LeftHand_dum2
      LeftHand_dum1 LeftHandThumb1
      RightShoulder RightArm
      RightArm RightForeArm
      RightForeArm RightHand
      RightHand RightHand_dum1 RightHand_dum2
      RightHand_dum1 RightHandThumb1
      LeftUpLeg LeftLeg
      LeftLeg LeftFoot
      LeftFoot LeftToeBase
      RightUpLeg RightLeg
      RightLeg RightFoot
      RightFoot RightToeBase
   end

# File created by Blade
# Date/Time:  Tue Jan 27 17:16:27 2015
# Frame Rate: 120.000 fps
#------------------------------------------------------
:FULLY-SPECIFIED
:DEGREES
1338
root -2.866047 36.590785 0.557041 1.166373 -2.820315 1.905210
Spine 6.780495 12.356715 -3.353221
Head -6.904576 -7.427978 7.112506
LeftShoulder -3.749859 -12.953065 11.652455
LeftArm -11.616063 -21.919490 -30.319682
LeftForeArm 3.954290 -0.000000 67.345640
LeftHand -16.323431 -0.000000 56.431408
LeftHandThumb1 -26.253704 0.000000 33.147579
RightShoulder -3.695289 -17.534888 3.578578
RightArm 19.206285 -18.038480 56.371281
RightForeArm -176.265937 -0.000000 29.989252
RightHand 0.841934 -0.000000 6.101770
RightHandThumb1 -24.326973 -0.000000 -32.862282
LeftUpLeg -67.293756 15.480353 0.640611
LeftLeg 81.849949 -0.000000 -0.000000
LeftFoot -3.340792 3.548717 -26.418088
LeftToeBase 16.041580 -0.000000 -0.000000
RightUpLeg -10.839398 -10.696030 5.360897
RightLeg 22.277625 -0.000000 -0.000000
RightFoot -17.927343 -9.868103 0.724114
RightToeBase 3.940949 -0.000000 -0.000000
1339
root -2.856117 36.591565 0.552440 1.171993 -2.745810 1.910964
Spine 6.786672 12.377286 -3.316153
Head -6.871139 -7.466089 7.057538
LeftShoulder -3.745073 -12.962090 11.648690
LeftArm -11.587307 -21.846240 -30.394619
LeftForeArm 3.935415 -0.000000 67.387290
LeftHand -16.221244 -0.000000 56.551169
LeftHandThumb1 -26.253704 0.000000 33.147579
RightShoulder -3.652631 -17.480940 3.540396
RightArm 19.299114 -17.972952 56.285618
RightForeArm -176.225791 -0.000000 30.143535
RightHand 0.821405 -0.000000 6.090317
RightHandThumb1 -24.326973 -0.000000 -32.862282
LeftUpLeg -67.256755 15.479114 0.608099
LeftLeg 81.743077 -0.000000 -0.000000
LeftFoot -3.643763 3.689121 -26.387808
LeftToeBase 16.023165 -0.000000 -0.000000
RightUpLeg -10.849599 -10.647365 5.344290
RightLeg 22.271160 -0.000000 -0.000000
RightFoot -17.936942 -9.976277 0.780546
RightToeBase 3.943982 -0.000000 -0.000000
1340
root -2.847715 36.592612 0.547816 1.175960 -2.679064 1.919860
Spine 6.793135 12.396688 -3.287359
Head -6.825408 -7.493267 7.030271
LeftShoulder -3.725077 -12.987304 11.657611
LeftArm -11.587385 -21.773409 -30.466949
LeftForeArm 3.886826 0.000000 67.422513
LeftHand -16.179534 -0.000000 56.691737
LeftHandThumb1 -26.253704 0.000000 33.147579
RightShoulder -3.613846 -17.459275 3.509935
RightArm 19.427364 -17.938062 56.169379
RightForeArm -176.183191 -0.000000 30.338818
RightHand 0.962061 -0.000000 6.181380
RightHandThumb1 -24.326973 -0.000000 -32.862282
LeftUpLeg -67.219979 15.492535 0.573516
LeftLeg 81.624971 -0.000000 -0.000000
LeftFoot -3.899169 3.833029 -26.203045
LeftToeBase 16.208224 -0.000000 -0.000000
RightUpLeg -10.856588 -10.622743 5.328501
RightLeg 22.256574 -0.000000 -0.000000
RightFoot -17.927278 -10.080017 0.784025
RightToeBase 3.945041 -0.000000 -0.000000
1341
root -2.837937 36.595242 0.542799 1.173536 -2.626719 1.919267
Spine 6.784717 12.448225 -3.272241
Head -6.736820 -7.513869 7.064545
LeftShoulder -3.673821 -12.914161 11.715079
LeftArm -11.566989 -21.791209 -30.617278
LeftForeArm 3.931640 -0.000000 67.511650
LeftHand -16.257054 -0.000000 56.845275
LeftHandThumb1 -26.253704 0.000000 33.147579
RightShoulder -3.554769 -17.432391 3.534091
RightArm 19.516216 -17.848864 56.020768
RightForeArm -176.084664 -0.000000 30.481798
RightHand 0.900127 -0.000000 6.270002
RightHandThumb1 -24.326973 -0.000000 -32.862282
LeftUpLeg -67.180159 15.528588 0.539868
LeftLeg 81.520379 -0.000000 -0.000000
LeftFoot -4.113371 3.910453 -26.142109
LeftToeBase 16.253073 -0.000000 -0.000000
RightUpLeg -10.857620 -10.694268 5.324243
RightLeg 22.221106 -0.000000 -0.000000
RightFoot -17.908577 -10.123236 0.788309
RightToeBase 3.978164 -0.000000 -0.000000
